<?xml version="1.0" standalone="no"?>
<!DOCTYPE svg PUBLIC "-//W3C//DTD SVG 20010904//EN"
 "http://www.w3.org/TR/2001/REC-SVG-20010904/DTD/svg10.dtd">
<svg version="1.0" xmlns="http://www.w3.org/2000/svg"
 width="229.000000pt" height="229.000000pt" viewBox="0 0 229.000000 229.000000"
 preserveAspectRatio="xMidYMid meet">
<metadata>
Created by potrace 1.11, written by Peter Selinger 2001-2013
</metadata>
<g transform="translate(0.000000,229.000000) scale(0.100000,-0.100000)"
fill="#000000" stroke="none">
<path d="M1160 1983 c-87 -8 -185 -26 -218 -40 -21 -8 -37 -15 -37 -14 0 1 -9
-1 -20 -4 -83 -28 -226 -119 -297 -189 -42 -43 -76 -68 -96 -72 -46 -9 -80
-62 -118 -181 -18 -57 -39 -114 -46 -126 -50 -78 -79 -309 -53 -420 7 -31 11
-58 8 -60 -2 -3 0 -39 6 -81 10 -72 51 -173 83 -207 7 -8 29 -37 48 -66 19
-28 38 -49 43 -46 4 2 34 -22 65 -56 35 -37 80 -71 118 -90 34 -17 64 -31 68
-31 3 0 25 -8 49 -19 23 -10 66 -24 95 -31 72 -16 243 -23 277 -10 27 10 69
17 270 45 131 19 164 29 222 69 43 30 48 37 50 74 1 23 9 48 20 60 35 37 51
60 76 111 15 28 31 57 36 63 6 7 25 30 43 51 23 28 38 64 55 130 13 51 29 110
35 132 17 66 15 354 -3 391 -9 17 -14 46 -11 67 5 41 -24 100 -38 77 -15 -25
-18 6 -3 40 27 60 18 80 -73 159 -8 7 -26 14 -38 15 -13 0 -21 6 -19 12 2 7
-11 17 -29 23 -18 6 -45 22 -61 36 -15 14 -27 23 -27 21 0 -11 -105 35 -117
51 -7 9 -28 16 -52 17 -36 1 -39 3 -39 28 1 16 5 28 10 28 11 0 10 27 -2 35
-5 3 -27 1 -47 -5 -31 -9 -54 -8 -115 4 -43 9 -78 15 -80 14 -2 0 -19 -3 -38
-5z m-96 -141 c3 -5 36 -21 73 -37 37 -15 91 -38 118 -50 28 -13 76 -33 107
-45 69 -27 96 -53 78 -75 -7 -8 -16 -12 -21 -9 -14 8 -64 -23 -109 -68 -127
-130 -130 -308 -8 -430 62 -62 92 -67 233 -45 36 6 69 28 111 75 58 65 66 54
63 -87 -3 -167 -57 -376 -128 -491 -35 -59 -104 -120 -148 -133 -159 -46 -296
-49 -383 -9 -40 18 -94 32 -140 37 -9 1 -27 8 -40 16 -14 8 -29 15 -35 15 -5
1 -14 3 -20 4 -5 1 -17 3 -25 4 -8 0 -17 12 -18 25 -3 20 0 23 20 18 37 -9
178 -25 233 -27 28 -1 57 -2 65 -2 76 -4 314 42 365 70 77 43 107 94 63 108
-13 3 -31 13 -40 21 -15 14 -22 14 -60 -2 -36 -15 -82 -18 -276 -21 -128 -2
-237 -6 -242 -9 -6 -3 -10 -1 -10 5 0 7 -7 10 -15 6 -8 -3 -15 -2 -15 2 0 5
-18 8 -40 7 -22 -1 -40 2 -40 6 0 4 -14 10 -31 14 -24 5 -34 2 -49 -15 -10
-12 -22 -20 -25 -19 -4 1 -22 -13 -41 -31 l-34 -32 -38 40 c-20 21 -61 78 -90
127 -48 80 -54 96 -61 168 -4 45 -4 101 0 126 4 25 13 82 19 126 13 91 54 209
78 228 10 6 28 33 41 59 13 27 36 61 51 76 40 43 161 136 192 150 15 6 30 22
33 35 7 26 51 56 99 68 43 10 134 11 140 1z m374 -427 c2 -10 -1 -20 -6 -24
-14 -9 -27 -61 -15 -61 13 0 47 -31 61 -55 7 -12 12 -14 12 -6 0 7 11 22 25
32 13 11 27 35 31 55 5 28 10 35 28 32 18 -3 21 -9 19 -51 -1 -39 -7 -53 -30
-73 -15 -13 -33 -24 -40 -24 -6 0 -13 -6 -15 -12 -3 -9 -10 -8 -23 5 -9 10
-24 16 -31 13 -37 -16 -48 -19 -43 -12 4 4 -6 20 -22 36 -29 29 -41 90 -18 90
8 0 9 11 5 31 -5 25 -3 30 9 25 9 -3 18 1 22 10 7 19 27 13 31 -11z"/>
<path d="M815 1615 c-54 -23 -125 -82 -125 -106 0 -5 -4 -9 -8 -9 -4 0 -14
-21 -21 -47 -7 -27 -21 -75 -31 -109 -25 -82 -13 -141 38 -190 49 -47 92 -64
166 -64 82 0 206 46 190 71 -3 5 0 9 6 9 20 0 60 -52 60 -78 0 -14 -23 -72
-52 -130 -49 -100 -51 -106 -37 -131 11 -18 23 -25 38 -24 12 2 35 -4 51 -12
38 -20 114 -20 130 0 10 12 24 14 61 9 33 -5 49 -3 50 5 3 56 0 121 -5 130
-10 16 -18 14 -48 -14 -28 -26 -62 -33 -73 -15 -11 17 -37 11 -42 -11 -4 -14
-12 -19 -27 -17 -18 3 -21 9 -18 43 2 22 8 44 13 49 5 6 9 18 9 28 0 10 5 18
11 18 20 0 -1 90 -33 147 -26 46 -28 56 -17 70 10 11 14 50 14 138 0 107 -3
127 -24 173 -18 37 -32 54 -55 62 -17 7 -39 16 -48 21 -32 16 -111 9 -173 -16z
m165 -141 c0 -9 -5 -14 -12 -12 -18 6 -21 28 -4 28 9 0 16 -7 16 -16z m-155
-44 c3 -5 -1 -10 -10 -10 -9 0 -13 5 -10 10 3 6 8 10 10 10 2 0 7 -4 10 -10z
m167 -35 c17 -38 -5 -101 -42 -120 -35 -18 -80 -20 -80 -2 0 9 -2 9 -9 -1 -7
-11 -9 -11 -14 1 -3 9 -14 13 -30 10 -19 -4 -26 0 -30 19 -4 14 -1 28 9 38 14
13 17 13 30 -4 8 -11 14 -26 14 -33 0 -7 5 -13 11 -13 19 0 69 34 69 47 0 7 4
13 9 13 5 0 15 16 21 35 14 41 26 44 42 10z m-190 0 c0 -8 1 -20 2 -27 1 -6
-7 -12 -16 -14 -13 -1 -18 5 -18 20 0 34 28 53 32 21z"/>
</g>
</svg>
